# xmcd
#
# Track frame offsets: 
#        150
#        14268
#        29039
#        43995
#        58454
#        72920
#        86831
#        100694
#        115413
#        131319
#        145755
#        159661
#        174112
#        189098
#        203159
#        217620
#        231154
#        246325
#        260678
#        276321
#        290327
#        303410
#
# Disc length: 4247 seconds
#
# Revision: 3
# Processed by: cddbd v1.5.2PL0 Copyright (c) Steve Scherf et al.
# Submitted via: ExactAudioCopy v1.0b4
#
DISCID=44109516
DTITLE=Bessie Smith - I ain't got nobody CD1
DYEAR=1900
DGENRE=Blues
TTITLE0=Woman's trouble blues
TTITLE1=Love me daddy's blues
TTITLE2=Follow the deal on down
TTITLE3=Sinful blues
TTITLE4=The St. Louis blues
TTITLE5=Reckless blues
TTITLE6=Sobbin' Hearted Blues
TTITLE7=Cold in hand blues
TTITLE8=You've been a good old wagon
TTITLE9=He's gone blues
TTITLE10=The yellow dog blues
TTITLE11=Weeping willow blues
TTITLE12=The bye bye blues
TTITLE13=Sing sing prison blues
TTITLE14=Cake walkin' babies
TTITLE15=Dyin' gambler's blues
TTITLE16=Soft pedal blues
TTITLE17=Dixie flyer blues
TTITLE18=Careless love blues
TTITLE19=J. C. Holmes blues
TTITLE20=Nobody's blues but mine
TTITLE21=Ain't gonna play second fiddle
EXTD=
EXTT0=
EXTT1=
EXTT2=
EXTT3=
EXTT4=
EXTT5=
EXTT6=
EXTT7=
EXTT8=
EXTT9=
EXTT10=
EXTT11=
EXTT12=
EXTT13=
EXTT14=
EXTT15=
EXTT16=
EXTT17=
EXTT18=
EXTT19=
EXTT20=
EXTT21=
PLAYORDER=
